<?xml version="1.0" encoding="utf-8"?>
<?xml-stylesheet type="text/xsl" href="rss1.xsl"?>
<rss version="2.0" xmlns:atom="http://www.w3.org/2005/Atom" xmlns:content="http://purl.org/rss/1.0/modules/content/" xmlns:dc="http://purl.org/dc/elements/1.1/" xmlns:media="http://search.yahoo.com/mrss/">
<channel>
 <title>Getty</title>
 <link>http://www.gettyimg.com/</link>
 <atom:link href="http://www.gettyimg.com/" rel="self" type="application/rss+xml" />

 
                <item>
                <title><![CDATA[【Music Videos】Madonna - Cherish (The Immaculate Collection) VJ-RoGeRs Edit (1080p 5.1) (Clean)]]></title>
                <link><![CDATA[https://sharemania.us/threads/madonna-cherish-the-immaculate-collection-vj-rogers-edit-1080p-5-1-clean.243452/]]></link>
                <description><![CDATA[<article>
<blockquote class="messageText SelectQuoteContainer ugc baseHtml">
<img src="https://i.ibb.co/wsLpBcj/Madonna-Cherish-The-Immaculate-Collection-VJ-Ro-Ge-Rs-Edit-1080p-5-1-mp4-thumbs-2024-04-30-12-34-58.jpg" class="bbCodeImage LbImage" alt="[​IMG]" data-url="https://i.ibb.co/wsLpBcj/Madonna-Cherish-The-Immaculate-Collection-VJ-Ro-Ge-Rs-Edit-1080p-5-1-mp4-thumbs-2024-04-30-12-34-58.jpg" style=""> <br>
<br>
<div class="ToggleTriggerAnchor bbCodeSpoilerContainer">
<button type="button" class="button bbCodeSpoilerButton ToggleTrigger Tooltip JsOnly" data-target="> .SpoilerTarget"><span>Spoiler: <span class="SpoilerTitle">MediaInfo</span></span></button>
<div class="SpoilerTarget bbCodeSpoilerText">Madonna - Cherish (The Immaculate Collection) VJ-RoGeRs Edit (1080p 5.1).mp4<br>
Format : MPEG-4<br>
Format profile : Base Media / Version 2<br>
Codec ID : mp42 (mp42/mp41)<br>
File size : 295 MiB<br>
Duration : 3 min 58 s<br>
Overall bit rate mode : Variable<br>
Overall bit rate : 10.3 Mb/s<br>
Frame rate : 24.000 FPS<br>
Encoded date : 2024-04-30 07:18:12 UTC<br>
Tagged date : 2024-04-30 07:18:29 UTC<br>
TIM : 00:00:00:00<br>
TSC : 24<br>
TSZ : 1<br>
<br>
Video<br>
ID : 1<br>
Format : AVC<br>
Format/Info : Advanced Video Codec<br>
Format profile : Main@L4.1<br>
Format settings : CABAC / 4 Ref Frames<br>
Format settings, CABAC : Yes<br>
Format settings, Reference : 4 frames<br>
Codec ID : avc1<br>
Codec ID/Info : Advanced Video Coding<br>
Duration : 3 min 58 s<br>
Bit rate : 10.0 Mb/s<br>
Width : 1 920 pixels<br>
Height : 1 080 pixels<br>
Display aspect ratio : 16:9<br>
Frame rate mode : Constant<br>
Frame rate : 24.000 FPS<br>
Color space : YUV<br>
Chroma subsampling : 4:2:0<br>
Bit depth : 8 bits<br>
Scan type : Progressive<br>
Bits/(Pixel*Frame) : 0.201<br>
Stream size : 285 MiB (97%)<br>
Language : English<br>
Encoded date : 2024-04-30 07:18:12 UTC<br>
Tagged date : 2024-04-30 07:18:12 UTC<br>
Color range : Limited<br>
Color primaries : BT.709<br>
Transfer characteristics : BT.709<br>
Matrix coefficients : BT.709<br>
Codec configuration box : avcC<br>
<br>
Audio<br>
ID : 2<br>
Format : AAC LC<br>
Format/Info : Advanced Audio Codec Low Complexity<br>
Codec ID : mp4a-40-2<br>
Duration : 3 min 58 s<br>
Source duration : 3 min 58 s<br>
Bit rate mode : Variable<br>
Bit rate : 317 kb/s<br>
Maximum bit rate : 625 kb/s<br>
Channel(s) : 6 channels<br>
Channel layout : C L R Ls Rs LFE<br>
Sampling rate : 48.0 kHz<br>
Frame rate : 46.875 FPS (1024 SPF)<br>
Compression mode : Lossy<br>
Stream size : 9.03 MiB (3%)<br>
Source stream size : 9.03 MiB (3%)<br>
Language : English<br>
Encoded date : 2024-04-30 07:18:12 UTC<br>
Tagged date : 2024-04-30 07:18:12 UTC</div>
</div><br>
<div class="bbCodeBlock bbCodeVfcHH HiddenContent">
<div class="attribution type">Hidden Content:</div>
<blockquote>You must reply before you can see the hidden data contained here.</blockquote>
</div>
<div class="messageTextEndMarker">&nbsp;</div>
</blockquote>
</article>]]></description>
                <author><![CDATA[DJ-RoGeRs-BS]]></author>
                </item>

                
                <item>
                <title><![CDATA[【Apple Music】WEB-RiP - Linkin Park - Numb [Apple Music WEB-DL 1080p HD]]]></title>
                <link><![CDATA[https://sharemania.us/threads/linkin-park-numb-apple-music-web-dl-1080p-hd.243451/]]></link>
                <description><![CDATA[<article>
<blockquote class="messageText SelectQuoteContainer ugc baseHtml">
<span style="font-size: 22px"><b>Linkin Park - Numb [Apple Music WEB-DL 1080p HD]</b></span><br>
<br>
<img src="https://imgur.com/Sz4Jndd.jpg" class="bbCodeImage LbImage" alt="[​IMG]" data-url="https://imgur.com/Sz4Jndd.jpg" style=""><br>
<br>
<div class="bbCodeBlock bbCodeCode">
<div class="type">Code:</div>
<pre>General
Format                         : MPEG-4
Codec ID                       : M4V  (isom/iso4/M4V /mp42)
File size                      : 231 MiB
Duration                       : 3 min 7 s
Overall bit rate mode          : Variable
Overall bit rate               : 10.3 Mb/s
Movie name                     : Numb
Performer                      : LINKIN PARK
Genre                          : Alternative
ContentType                    : Music Video
Recorded date                  : UTC 2023-03-20 07:00:00
Encoded date                   : UTC 2024-03-15 22:21:11
Tagged date                    : UTC 2024-03-15 22:21:11
Copyright                      : ℗ © 2003 Warner Records Inc.
Cover                          : Yes
Rating                         : None
GenreID                        : 1620
AppleStoreCountry              : Canada
AlbumTitleID                   : 148662
AppleStoreCatalogID            : 1677892753

Video
ID                             : 2
Format                         : AVC
Format/Info                    : Advanced Video Codec
Format profile                 : High@L4
Format settings                : CABAC / 4 Ref Frames
Format settings, CABAC         : Yes
Format settings, Reference fra : 4 frames
Codec ID                       : avc1
Codec ID/Info                  : Advanced Video Coding
Duration                       : 3 min 7 s
Bit rate                       : 10.0 Mb/s
Maximum bit rate               : 27.0 Mb/s
Width                          : 1 920 pixels
Height                         : 914 pixels
Display aspect ratio           : 2.101
Frame rate mode                : Constant
Frame rate                     : 23.976 (24000/1001) FPS
Color space                    : YUV
Chroma subsampling             : 4:2:0
Bit depth                      : 8 bits
Scan type                      : Progressive
Bits/(Pixel*Frame)             : 0.239
Stream size                    : 224 MiB (97%)
Title                          : Core Media Video
Encoded date                   : UTC 2024-02-15 17:03:40
Tagged date                    : UTC 2024-03-15 22:21:18
Color range                    : Limited
Color primaries                : BT.709
Transfer characteristics       : BT.709
Matrix coefficients            : BT.709
Codec configuration box        : avcC

Audio
ID                             : 1
Format                         : AAC LC
Format/Info                    : Advanced Audio Codec Low Complexity
Codec ID                       : mp4a-40-2
Duration                       : 3 min 7 s
Duration_LastFrame             : -11 ms
Bit rate mode                  : Variable
Bit rate                       : 279 kb/s
Maximum bit rate               : 367 kb/s
Channel(s)                     : 2 channels
Channel layout                 : L R
Sampling rate                  : 48.0 kHz
Frame rate                     : 46.875 FPS (1024 SPF)
Compression mode               : Lossy
Stream size                    : 6.23 MiB (3%)
Title                          : Core Media Audio
Encoded date                   : UTC 2024-02-15 17:03:18
Tagged date                    : UTC 2024-03-15 22:21:18
</pre>
</div>
<div class="bbCodeBlock bbCodeVfcHH HiddenContent">
<div class="attribution type">Hidden Content:</div>
<blockquote>You must reply before you can see the hidden data contained here.</blockquote>
</div>
<div class="messageTextEndMarker">&nbsp;</div>
</blockquote>
</article>]]></description>
                <author><![CDATA[Ron001]]></author>
                </item>

                </channel></rss>